<svg id="Layer_1" data-name="Layer 1" xmlns="http://www.w3.org/2000/svg" viewBox="0 0 319.66 301.32"><defs><style>.cls-1{fill:#707070;}</style></defs><path class="cls-1" d="M290,162.37c0,26.73.07,53.47,0,80.2-.08,28.43-21.42,49.93-49.8,50q-80.19.15-160.39,0c-28.39-.06-50-21.62-50.09-49.86q-.15-80.9,0-161.79A49.47,49.47,0,0,1,70.35,32.72c10.4-1.79,11.73-.68,11.78,9.84C82.2,56,88.41,63.43,99.29,63.16c9.18-.24,15.25-6.35,15.84-16,.91-14.94.91-14.94,15.73-14.94,21.85,0,43.71.17,65.56-.11,6-.08,8.68,1.82,8.16,8a46.72,46.72,0,0,0,.14,8.36,15.72,15.72,0,0,0,15.7,14.72,16.31,16.31,0,0,0,16.91-14.3,77.59,77.59,0,0,0,.22-8.36c.14-7.94,1-8.69,9-8.11,22.81,1.62,43.18,23.45,43.36,47C290.15,107,290,134.71,290,162.37ZM159.77,101.64c-33.22,0-66.45.17-99.67-.14-6.85-.06-9.34,1.68-9.29,8.92.29,43.44.08,86.89.17,130.34,0,19.73,10.85,30.45,30.72,30.48q78.07.12,156.13,0c20.27,0,31.49-11.11,31.57-31.55.16-43.45-.09-86.89.13-130.34,0-6.22-2-7.88-8-7.84C227.61,101.77,193.69,101.64,159.77,101.64Z"/><path class="cls-1" d="M109.92,32.92c-.3,5.1-.23,10.24-1,15.27C108,54,104.29,57.31,98.25,57s-9.51-4.11-9.74-9.9c-.38-9.52-.43-19.07,0-28.58.28-5.73,3.91-9.46,9.91-9.77s9.84,3.18,10.61,8.89c.67,5,.14,10.19.14,15.3Z"/><path class="cls-1" d="M231.28,33.12c0,4.64.28,9.31-.07,13.93-.43,5.85-3.76,9.5-9.76,9.81S211.52,54,210.8,48.1A114.61,114.61,0,0,1,211,16.87c.85-5.62,4.73-8.42,10.39-8.16s9.15,3.58,9.69,9.1c.5,5.06.11,10.2.11,15.31Z"/><path class="cls-1" d="M148.69,138.42c0,1.85-.12,3.71,0,5.54.44,5.5-2.35,7.31-7.49,7.26-22.13-.21-18.68,2.16-19.19-18.53-.14-5.84,1.78-8.81,7.95-8.12,1.6.17,3.23,0,4.85,0C149.4,124.7,148.72,123,148.69,138.42Z"/><path class="cls-1" d="M73.23,186.77c0-13.36,0-13.36,13.16-13.34,13.46,0,13.46,0,13.47,13.19,0,2.09-.13,4.19,0,6.27.3,5-1.92,7.38-7,7.15-2.08-.09-4.18,0-6.27,0C73.23,200,73.23,200,73.23,186.77Z"/><path class="cls-1" d="M148.69,187.42c0,1.86-.1,3.73,0,5.58.33,5.08-2.1,7.09-7.06,7.05-22.75-.19-19.1,2.34-19.6-19-.14-5.69,2-8.26,7.74-7.68,1.61.16,3.25,0,4.88,0C148.72,173.42,148.72,173.42,148.69,187.42Z"/><path class="cls-1" d="M184.66,173.43c.93,0,1.86,0,2.79,0,10.1,0,10.22.07,10.14,10.06-.14,17.76,2.29,16.53-16.38,16.54-9.88,0-10.16-.32-10.22-10.14,0-.93,0-1.86,0-2.79C171,173.43,171,173.43,184.66,173.43Z"/><path class="cls-1" d="M197.62,138.05c0,13.19,0,13.19-13.36,13.15S171,151.17,171,138c0-13.44,0-13.44,13.76-13.43C197.63,124.59,197.63,124.59,197.62,138.05Z"/><path class="cls-1" d="M246.47,187.14a34.1,34.1,0,0,0,0,4.17c.83,6.8-2.38,8.92-8.86,8.81-20.25-.32-17.35,1.44-17.84-18.11-.17-6.79,2.6-9.33,9.07-8.6a38.83,38.83,0,0,0,4.18,0C246.48,173.43,246.48,173.43,246.47,187.14Z"/><path class="cls-1" d="M86.43,222.33c13.43,0,13.43,0,13.43,13.19,0,13.44,0,13.44-11.81,13.43-14.82,0-14.82,0-14.82-13.21C73.24,222.33,73.24,222.33,86.43,222.33Z"/><path class="cls-1" d="M148.72,235.72c0,13.23,0,13.23-13.37,13.22s-13.25,0-13.25-13.39,0-13.26,13.41-13.23C148.73,222.35,148.73,222.35,148.72,235.72Z"/><path class="cls-1" d="M184.39,222.33c13.21,0,13.21,0,13.23,13.42,0,13.2,0,13.2-13.45,13.19-13.18,0-13.18,0-13.19-13.43C171,222.33,171,222.33,184.39,222.33Z"/><path class="cls-1" d="M246.48,138.4c0,12.68,0,12.68-13,12.79-13.63.12-13.63.12-13.61-13.53,0-13,0-13.07,12.71-13.07C247.46,124.58,246.46,123.32,246.48,138.4Z"/></svg>