<svg id="Layer_1" data-name="Layer 1" xmlns="http://www.w3.org/2000/svg" viewBox="0 0 70.47 52.34"><defs><style>.cls-1{fill:#707070;}.cls-2{fill:#ff7200;}</style></defs><path class="cls-1" d="M48.82,35.67h7.06a3.05,3.05,0,0,1,2.94,1.89c.78,1.61.28,2.86-1.44,3.27q-10,2.45-20,4.79a10.93,10.93,0,0,1-5.5-.2c-3.45-1-7-1.74-10.39-2.79a7.35,7.35,0,0,0-6.7.91c-.51.34-1.07.63-1.6.93-3.14,1.78-3.14,1.78-5-1.42s-3.75-6.56-5.7-9.79c-.63-1-.66-1.66.54-2.31C7.13,28.68,11.19,26.31,15.3,24a13.18,13.18,0,0,1,10.93-1.11c3.7,1.2,7.42,2.37,11.12,3.6,1.94.64,2.8,2.07,2.28,3.62s-2,2.24-4,1.64q-3.29-1-6.52-2.13c-.92-.32-1.8-.47-2.2.58s.4,1.6,1.38,1.94C37.81,35.43,39.25,35.69,48.82,35.67Z"/><path class="cls-2" d="M68.43,14.49a10.84,10.84,0,0,1-1.86,5.61c-2.8,4.29-6.68,7.45-10.83,10.32a2,2,0,0,1-2.43,0c-4.32-3-8.37-6.22-11.14-10.76s-1.75-9.4,2.24-11.93a7.34,7.34,0,0,1,8.68.3c1,.84,1.66.92,2.77,0a7.13,7.13,0,0,1,8.19-.67A8.14,8.14,0,0,1,68.43,14.49Z"/></svg>