<svg id="Layer_1" data-name="Layer 1" xmlns="http://www.w3.org/2000/svg" viewBox="0 0 70.47 52.34"><defs><style>.cls-1{fill:#707070;}.cls-2{fill:#ff7200;}</style></defs><path class="cls-1" d="M46.81,50.66H45.68c0-.06-.13,0-.2,0a11.4,11.4,0,0,1-1.54-.21c-2-.36-4-.87-6-1.23a32,32,0,0,0-4-.5c-1.49-.08-3,0-4.46-.05h-8a56.3,56.3,0,0,0-5.66.15,50.28,50.28,0,0,0-5.44.94c-1.2.26-2.39.55-3.6.74l-1.45.21H4.21c-.08-.07-.17,0-.26-.06a3,3,0,0,1-2.34-1.37,5.16,5.16,0,0,1-.68-1.9C.86,46.9.82,46.46.77,46V44.31c.07-.07,0-.17,0-.26a15.28,15.28,0,0,1,.35-2.52,17.65,17.65,0,0,1,14.2-13.66.42.42,0,0,1,.37.08,15.3,15.3,0,0,0,18.35-.13.54.54,0,0,1,.42-.12c.53.07,1.06.15,1.59.25A17.65,17.65,0,0,1,48.7,38a17.75,17.75,0,0,1,1.46,5.39,4.59,4.59,0,0,0,.1,1v1.73c-.08.09,0,.2-.06.31a7.25,7.25,0,0,1-.41,2.06,3,3,0,0,1-2.3,2.07Z"/><path class="cls-1" d="M25.51,2.41c.43.09.87.08,1.3.15a13.33,13.33,0,0,1,10.1,7.72,12.78,12.78,0,0,1,.83,8.22,13,13,0,0,1-6.55,8.75,12.57,12.57,0,0,1-7.69,1.57,13,13,0,0,1-10.4-7,12.42,12.42,0,0,1-1.51-6.94,13,13,0,0,1,5-9.57,12.78,12.78,0,0,1,7.29-2.85c.06,0,.14,0,.2,0Z"/><path class="cls-2" d="M51.32,43.15h0A16.85,16.85,0,0,0,34.47,26.3h0A16.86,16.86,0,0,0,51.32,9.45h0A16.85,16.85,0,0,0,68.17,26.3h0A16.84,16.84,0,0,0,51.32,43.15Z"/></svg>