<svg id="Layer_1" data-name="Layer 1" xmlns="http://www.w3.org/2000/svg" viewBox="0 0 259.4 301.32"><defs><style>.cls-1{fill:#707070;}</style></defs><path class="cls-1" d="M129.59,14.58c50.66-.05,87.62,46.37,77.07,96.74-3.76,18-10.62,34.82-18.78,51.12C173,192.28,154.58,220,134.54,246.61c-3,3.93-5.22,6.13-9.17.79C99,211.79,74.49,175.07,59.06,133.17c-6.94-18.84-11.1-38.07-6-58.43C62,39.52,93.32,14.61,129.59,14.58Zm-.14,40.19c-21.19.09-38.6,17.38-38.67,38.38a39.5,39.5,0,0,0,39.52,39.31c20.54-.07,38.34-18.23,38.24-39A38.87,38.87,0,0,0,129.45,54.77Z"/><path class="cls-1" d="M130.22,286.64c-21.91.44-42.32-2-62-8.93-8.71-3.07-17.13-6.94-23-14.62-6.9-9-6.81-19.52.58-27.95,8.59-9.79,20.41-13.61,32.41-16.93,3.64-1,5.12,1.85,6.82,4.23,9.64,13.46,9.62,13.37-5.76,18.36a86.32,86.32,0,0,0-12,5.12c-4.91,2.47-4.47,5,.21,7.49,10.93,5.78,22.82,8.14,34.87,9.72,26.49,3.47,52.75,2.57,78.51-5.16a80.62,80.62,0,0,0,10.72-4.47c1.69-.79,3.92-1.57,4-3.82.07-2.62-2.4-3.45-4.27-4.44a69.73,69.73,0,0,0-19.92-6.72c-5.29-1-5.6-3-2.89-7.35,9.31-14.86,10.1-15.23,26.3-8.59a55,55,0,0,1,15,8.77c12.81,10.92,12.66,26.23-.47,36.75-8.12,6.49-17.7,10-27.61,12.61A177.31,177.31,0,0,1,130.22,286.64Z"/></svg>