<svg id="Layer_1" data-name="Layer 1" xmlns="http://www.w3.org/2000/svg" viewBox="0 0 81.7 68.87"><defs><style>.cls-1{fill:#707070;}.cls-2{fill:#ff7200;}</style></defs><path class="cls-1" d="M17.08,32.38c-4.87-4.45-8.23-9.56-8-16.4a5.85,5.85,0,0,1,1.44-3.84,19.4,19.4,0,0,1,28.87-.26c1.13,1.27,1.55,1.57,2.85.09A19.19,19.19,0,0,1,72.64,35.24a31.57,31.57,0,0,1-5.56,6.37C60,47.92,51.55,52.26,44.25,59a28.39,28.39,0,0,0-1.09-8.76c-.41-1.24.62-1.71,1.39-2.26,4.1-2.92,8.22-5.81,12.32-8.74A36.43,36.43,0,0,0,65,31.69c3.56-4.77,3.38-10.13-.33-14.31-3.39-3.81-10-4.81-14.65-2.21-4.06,2.29-6.28,6.08-8.21,10.11-.3.63-.55,1.28-.94,2.21a41.22,41.22,0,0,0-4.56-8.24c-3.48-4.46-8-6.32-13.54-5.2a10.84,10.84,0,0,0-6.94,16.41C16.25,31.11,16.67,31.74,17.08,32.38Z"/><path class="cls-2" d="M41,63.33c-5.67-7.85-14-12.08-21.27-17.59C15.45,42.52,11.37,39.16,8.6,34.5a18.34,18.34,0,0,1-1.48-16A44.53,44.53,0,0,0,9,24c4.52,9.13,11.74,15.55,20.61,20.26.88.46,2.08,1.32,2.91.43,1-1.08-.23-2.14-.77-3-1.27-2.11-2.72-4.13-4.1-6.18a4.78,4.78,0,0,1-.75-4.31c3.64,5.14,8.17,9,11.67,13.74C42.64,50.45,43.91,56.48,41,63.33Z"/></svg>